<svg width="512" height="512" xmlns="http://www.w3.org/2000/svg">
    <!-- Font Awesome Free 5.15.1 by @fontawesome - https://fontawesome.com License - https://fontawesome.com/license/free (Icons: CC BY 4.0, Fonts: SIL OFL 1.1, Code: MIT License) -->
    <g>
        <rect fill="#D7FE3C" id="canvas_background" height="514" width="514" y="-1" x="-1" />
    </g>
    <g>
        <path stroke="null" fill="#0B0B13" id="svg_1" d="m421.24796,269.05838c-26.88353,0 -38.52623,13.51619 -53.13253,13.51619c-38.83379,0 -3.48613,-116.80277 -3.48613,-116.80277s-127.0964,55.41644 -127.0964,-2.28384c0,-24.81756 23.49646,-32.03764 23.49646,-59.56228c0,-24.59243 -18.20445,-37.90346 -39.79597,-37.90346c-22.43845,0 -42.97196,13.0859 -42.97196,39.03117c0,28.65306 16.19736,41.06151 16.19736,56.62867c0.00064,48.22822 -109.54933,19.85432 -109.54933,19.85432l0,230.83509s115.6661,28.43347 115.6661,-19.85433c0,-15.56716 -27.82688,-29.84375 -27.82688,-58.49683c0,-25.94598 20.86626,-33.88371 43.09297,-33.88371c21.80326,0 40.00771,10.22498 40.00771,34.81671c0,27.52465 -15.267,31.22311 -15.267,56.04067c0,42.11857 75.73505,21.34492 109.11689,21.34492c0,0 -22.48442,-76.15141 16.72297,-76.15141c23.28539,0 30.05888,14.91342 55.8844,14.91342c23.07365,0.00069 34.0196,-17.85896 34.0196,-41.09715c0,-23.68983 -10.73487,-40.94541 -35.07826,-40.94541z" />
    </g>
</svg>
